Patient4_TMGait_0pt5_02_right_05_GRF.mot
version=1
nRows=65
nColumns=19
inDegrees=no
endheader
time	F1x	F1y	F1z	M1x	M1y	M1z	F2x	F2y	F2z	M2x	M2y	M2z	EC1x	EC1y	EC1z	EC2x	EC2y	EC2z
6.42	-12.643	750.8338	55.7684	-273.8198	-46.928	591.5348	4.2212	7.4238	-15.4117	6.576	18.9174	10.4793	-0.0592	0.0182	-0.0073	-0.0462	0.0165	0.9585
6.4338	-9.6618	747.1346	53.9491	-272.3694	-44.5638	586.194	2.8189	5.6681	-10.6645	4.7484	13.0501	7.5931	-0.0592	0.0182	-0.0073	-0.0462	0.0165	0.9585
6.4476	-6.478	743.5879	52.0448	-271.0034	-41.9413	580.2304	1.6296	4.206	-6.5441	3.1847	7.9649	5.1794	-0.0592	0.0182	-0.0073	-0.0462	0.0165	0.9585
6.4614	-3.2347	740.7741	50.2022	-269.9574	-39.2249	574.1921	0.71979	3.1245	-3.3397	1.9875	4.0184	3.3727	-0.0592	0.0182	-0.0073	-0.0462	0.0165	0.9585
6.4751	-0.0011596	739.1662	48.5304	-269.4202	-36.5485	568.5606	0.085585	2.4077	-1.0747	1.1578	1.2395	2.1542	-0.0592	0.0182	-0.0073	-0.0462	0.0165	0.9585
6.4889	3.206	739.0543	47.067	-269.5049	-33.9751	563.662	-0.32311	1.9926	0.3653	0.64139	-0.51345	1.4326	-0.0592	0.0182	-0.0073	-0.0462	0.0165	0.9585
6.5027	6.4106	740.4861	45.8214	-270.2292	-31.5296	559.6159	-0.56341	1.7812	1.1565	0.35776	-1.4635	1.0724	-0.0592	0.0182	-0.0073	-0.0462	0.0165	0.9585
6.5165	9.6544	743.2955	44.7674	-271.5235	-29.1886	556.3603	-0.69871	1.6673	1.4784	0.22173	-1.835	0.93878	-0.0592	0.0182	-0.0073	-0.0462	0.0165	0.9585
6.5303	12.9655	747.1457	43.8931	-273.2415	-26.9379	553.7079	-0.77487	1.5437	1.493	0.15311	-1.8298	0.88363	-0.0592	0.0182	-0.0073	-0.0462	0.0165	0.9585
6.5441	16.3522	751.5842	43.2055	-275.1795	-24.7787	551.3929	-0.82081	1.3103	1.3269	0.081825	-1.6073	0.77236	-0.0592	0.0182	-0.0073	-0.0462	0.0165	0.9585
6.5579	19.7799	756.1112	42.7504	-277.1024	-22.7525	549.1393	-0.86133	0.88004	1.0751	-0.050016	-1.2835	0.50011	-0.0592	0.0182	-0.0073	-0.0462	0.0165	0.9585
6.5716	23.1925	760.2396	42.6014	-278.7752	-20.9314	546.6861	-0.89784	0.18255	0.804	-0.28638	-0.9408	-0.018996	-0.0592	0.0182	-0.0073	-0.0462	0.0165	0.9585
6.5854	26.5281	763.5778	42.8265	-280.0042	-19.3887	543.8573	-0.92411	-0.82027	0.56106	-0.65148	-0.63696	-0.82851	-0.0592	0.0182	-0.0073	-0.0462	0.0165	0.9585
6.5992	29.7245	765.8741	43.4667	-280.6612	-18.1786	540.5702	-0.91897	-2.1089	0.38458	-1.1409	-0.42033	-1.9128	-0.0592	0.0182	-0.0073	-0.0462	0.0165	0.9585
6.613	32.7468	767.0311	44.5356	-280.6912	-17.3266	536.8317	-0.83659	-3.5638	0.30767	-1.7063	-0.33982	-3.1697	-0.0592	0.0182	-0.0073	-0.0462	0.0165	0.9585
6.6268	35.5795	767.0707	46.0253	-280.0989	-16.8339	532.7126	-0.61921	-4.918	0.36718	-2.2362	-0.45263	-4.3698	-0.0592	0.0182	-0.0073	-0.0462	0.0165	0.9585
6.6406	38.2228	766.0547	47.8996	-278.9211	-16.6839	528.285	-0.18968	-5.7146	0.60403	-2.5383	-0.82294	-5.1162	-0.0592	0.0182	-0.0073	-0.0462	0.0165	0.9585
6.6544	40.6765	764.0482	50.0869	-277.2115	-16.8387	523.5829	0.53783	-5.246	1.0653	-2.319	-1.5179	-4.7797	-0.0592	0.0182	-0.0073	-0.0462	0.0165	0.9585
6.6681	42.9293	761.1276	52.4807	-275.039	-17.238	518.6192	1.6396	-2.5332	1.7954	-1.1739	-2.5996	-2.4882	-0.0592	0.0182	-0.0073	-0.0462	0.0165	0.9585
6.6819	44.9606	757.3772	54.9532	-272.4824	-17.8048	513.4016	3.1563	3.6409	2.8147	1.3986	-4.0967	2.8384	-0.0592	0.0182	-0.0073	-0.0462	0.0165	0.9585
6.6957	46.7165	752.817	57.3579	-269.597	-18.4588	507.9003	5.042	14.6334	4.0925	5.954	-5.9585	12.4117	-0.0592	0.0182	-0.0073	-0.0462	0.0165	0.9585
6.7095	48.1282	747.2772	59.5358	-266.3703	-19.1191	501.9623	7.1214	31.6917	5.5091	12.9991	-7.9984	27.3526	-0.0592	0.0182	-0.0073	-0.0462	0.0165	0.9585
6.7233	49.1086	740.2928	61.3168	-262.6811	-19.7034	495.2631	8.9574	55.5954	6.8169	22.8427	-9.8112	48.3951	-0.0592	0.0182	-0.0073	-0.0462	0.0165	0.9585
6.7371	49.5762	731.058	62.5253	-258.2802	-20.1291	487.2722	9.6723	86.1718	7.6766	35.3957	-10.7335	75.4402	-0.0592	0.0182	-0.0073	-0.0462	0.0165	0.9585
6.7509	49.4763	718.5246	62.9934	-252.8256	-20.3156	477.3154	8.1977	121.7293	7.6147	49.9409	-9.9107	107.0544	-0.0592	0.0182	-0.0073	-0.0462	0.0165	0.9585
6.7646	48.8061	701.7059	62.5877	-245.9941	-20.1924	464.7574	4.3057	159.0942	6.1425	65.145	-6.8193	140.4765	-0.0592	0.0182	-0.0073	-0.0462	0.0165	0.9585
6.7784	47.6455	680.0599	61.2302	-237.6171	-19.6931	449.2217	-1.0839	194.0884	3.0411	79.2893	-1.6433	171.9138	-0.0592	0.0182	-0.0073	-0.0462	0.0165	0.9585
6.7922	46.1568	653.7575	58.9439	-227.7739	-18.7817	430.7729	-6.8198	223.3147	-1.214	91.0223	4.6879	198.1612	-0.0592	0.0182	-0.0073	-0.0462	0.0165	0.9585
6.806	44.5492	623.6757	55.8369	-216.7851	-17.4545	409.9266	-12.1712	246.2796	-5.8014	100.1915	11.1136	218.6358	-0.0592	0.0182	-0.0073	-0.0462	0.0165	0.9585
6.8198	43.0071	591.0664	52.0544	-205.0905	-15.7388	387.46	-16.8625	265.1202	-9.9346	107.7149	16.811	235.1775	-0.0592	0.0182	-0.0073	-0.0462	0.0165	0.9585
6.8336	41.6514	557.0982	47.7158	-193.0901	-13.6602	364.138	-20.7756	282.793	-13.0429	114.8366	21.2318	250.3886	-0.0592	0.0182	-0.0073	-0.0462	0.0165	0.9585
6.8474	40.5041	522.5524	42.9109	-181.038	-11.251	340.5092	-23.7786	301.7596	-14.8011	122.579	24.0511	266.402	-0.0592	0.0182	-0.0073	-0.0462	0.0165	0.9585
6.8611	39.478	487.6806	37.7635	-168.9873	-8.5983	316.8059	-25.8373	323.5855	-15.2997	131.5582	25.3469	284.585	-0.0592	0.0182	-0.0073	-0.0462	0.0165	0.9585
6.8749	38.4027	452.2004	32.4725	-156.7947	-5.8648	292.9082	-27.0667	348.9471	-14.9697	141.9929	25.5562	305.5529	-0.0592	0.0182	-0.0073	-0.0462	0.0165	0.9585
6.8887	37.0422	415.4723	27.3064	-144.1856	-3.2832	268.4437	-27.7276	377.8258	-14.4679	153.7944	25.3648	329.3571	-0.0592	0.0182	-0.0073	-0.0462	0.0165	0.9585
6.9025	35.134	376.7971	22.5353	-130.8712	-1.1049	242.98	-28.1556	409.7603	-14.5399	166.6851	25.5568	355.6857	-0.0592	0.0182	-0.0073	-0.0462	0.0165	0.9585
6.9163	32.4219	335.7512	18.3682	-116.6745	0.4442	216.2354	-28.7029	444.1856	-15.7881	180.3629	26.79	384.1054	-0.0592	0.0182	-0.0073	-0.0462	0.0165	0.9585
6.9301	28.7089	292.5311	14.8884	-101.655	1.2302	188.3117	-29.6877	480.7899	-18.55	194.6587	29.469	414.3805	-0.0592	0.0182	-0.0073	-0.0462	0.0165	0.9585
6.9439	23.9528	248.0864	12.0636	-86.1559	1.2425	159.7696	-31.2617	519.5735	-22.7676	209.5729	33.5821	446.4852	-0.0592	0.0182	-0.0073	-0.0462	0.0165	0.9585
6.9576	18.3371	204.006	9.8037	-70.7555	0.59075	131.5706	-33.4052	560.5372	-28.1058	225.1408	38.8159	480.3563	-0.0592	0.0182	-0.0073	-0.0462	0.0165	0.9585
6.9714	12.2959	162.1634	8.0082	-56.1351	-0.51087	104.8411	-35.981	603.2012	-34.0408	241.2279	44.6549	515.5133	-0.0592	0.0182	-0.0073	-0.0462	0.0165	0.9585
6.9852	6.3983	124.2463	6.6008	-42.9035	-1.812	80.5997	-38.7753	646.3181	-40.0509	257.4024	50.5664	550.8226	-0.0592	0.0182	-0.0073	-0.0462	0.0165	0.9585
6.999	1.1932	91.383	5.4991	-31.4632	-3.0562	59.5332	-41.5441	687.9641	-45.6552	272.9633	56.0511	584.6029	-0.0592	0.0182	-0.0073	-0.0462	0.0165	0.9585
7.0128	-2.9225	64.0537	4.6239	-21.9786	-4.0418	41.9428	-44.0323	725.9283	-50.4725	287.09	60.7013	614.9554	-0.0592	0.0182	-0.0073	-0.0462	0.0165	0.9585
7.0266	-5.7233	42.2192	3.8639	-14.4255	-4.6077	27.8297	-46.0087	758.161	-54.2442	299.0144	64.2245	640.1529	-0.0592	0.0182	-0.0073	-0.0462	0.0165	0.9585
7.0404	-7.1297	25.502	3.1319	-8.662	-4.671	16.9776	-47.2922	783.077	-56.8547	308.1416	66.4659	658.8807	-0.0592	0.0182	-0.0073	-0.0462	0.0165	0.9585
7.0541	-7.2125	13.3104	2.3894	-4.4754	-4.2394	9.0274	-47.7546	799.7271	-58.2868	314.1187	67.3752	670.3661	-0.0592	0.0182	-0.0073	-0.0462	0.0165	0.9585
7.0679	-6.3026	4.9876	1.6683	-1.6306	-3.4577	3.5661	-47.3435	807.8739	-58.5918	316.8637	66.9932	674.4485	-0.0592	0.0182	-0.0073	-0.0462	0.0165	0.9585
7.0817	-4.95	-0.10972	1.0474	0.10387	-2.5732	0.19334	-46.079	807.9748	-57.8766	316.5606	65.4329	671.5369	-0.0592	0.0182	-0.0073	-0.0462	0.0165	0.9585
7.0955	-3.5441	-2.7561	0.57551	0.99728	-1.7619	-1.5748	-44.0349	801.1685	-56.317	313.6553	62.8815	662.5925	-0.0592	0.0182	-0.0073	-0.0462	0.0165	0.9585
7.1093	-2.3071	-3.7036	0.24896	1.3092	-1.1044	-2.2225	-41.3327	789.1862	-54.1436	308.8213	59.5856	649.0547	-0.0592	0.0182	-0.0073	-0.0462	0.0165	0.9585
7.1231	-1.3364	-3.5879	0.054355	1.2581	-0.6335	-2.1699	-38.1158	774.0894	-51.6136	302.8601	55.8203	632.6111	-0.0592	0.0182	-0.0073	-0.0462	0.0165	0.9585
7.1369	-0.65063	-2.9063	-0.037572	1.014	-0.33836	-1.7428	-34.5324	757.9976	-48.9485	296.5958	51.8302	614.9723	-0.0592	0.0182	-0.0073	-0.0462	0.0165	0.9585
7.1506	-0.22206	-2.0112	-0.057228	0.69765	-0.18834	-1.1668	-30.679	742.9007	-46.3162	290.8041	47.7939	597.7089	-0.0592	0.0182	-0.0073	-0.0462	0.0165	0.9585
7.1644	-0.0020008	-1.1289	-0.025198	0.38791	-0.15167	-0.59317	-26.581	730.4881	-43.8343	286.1428	43.818	582.1242	-0.0592	0.0182	-0.0073	-0.0462	0.0165	0.9585
7.1782	0.061131	-0.39048	0.035499	0.12977	-0.19033	-0.1188	-22.2139	721.9898	-41.59	283.0872	39.9581	569.1455	-0.0592	0.0182	-0.0073	-0.0462	0.0165	0.9585
7.192	0.012291	0.13454	0.11506	-0.053841	-0.28225	0.2018	-17.5264	718.0641	-39.6555	281.8872	36.2419	559.2571	-0.0592	0.0182	-0.0073	-0.0462	0.0165	0.9585
7.2058	-0.11428	0.41223	0.19689	-0.15113	-0.40203	0.34247	-12.4895	718.8115	-38.1114	282.5693	32.7083	552.5417	-0.0592	0.0182	-0.0073	-0.0462	0.0165	0.9585
7.2196	-0.28762	0.42462	0.28261	-0.1531	-0.54055	0.29103	-7.1174	723.8479	-37.0153	284.9647	29.3917	548.7514	-0.0592	0.0182	-0.0073	-0.0462	0.0165	0.9585
7.2334	-0.48684	0.155	0.35871	-0.050877	-0.67556	0.026965	-1.4997	732.3944	-36.3829	288.7428	26.3237	547.3993	-0.0592	0.0182	-0.0073	-0.0462	0.0165	0.9585
7.2471	-0.68861	-0.40685	0.42846	0.16276	-0.80102	-0.46587	4.171	743.3257	-36.186	293.4275	23.5392	547.8169	-0.0592	0.0182	-0.0073	-0.0462	0.0165	0.9585
7.2609	-0.86013	-1.2629	0.4837	0.48997	-0.89436	-1.1988	9.6039	755.1983	-36.384	298.411	21.1084	549.174	-0.0592	0.0182	-0.0073	-0.0462	0.0165	0.9585
7.2747	-0.94645	-2.3941	0.52461	0.9231	-0.93405	-2.1653	14.4189	766.3524	-36.9205	302.9979	19.1271	550.5393	-0.0592	0.0182	-0.0073	-0.0462	0.0165	0.9585
7.2885	-0.86906	-3.7149	0.5247	1.4286	-0.86817	-3.3052	18.2473	775.0957	-37.7347	306.4848	17.6943	550.9567	-0.0592	0.0182	-0.0073	-0.0462	0.0165	0.9585
7.3023	-0.53392	-5.0353	0.45496	1.9343	-0.63769	-4.4594	20.8632	779.9914	-38.766	308.2804	16.864	549.5798	-0.0592	0.0182	-0.0073	-0.0462	0.0165	0.9585
